<svg xmlns="http://www.w3.org/2000/svg" width="1460" height="736" viewBox="0 0 1460 736" font-family="Segoe UI, Arial, sans-serif">
  <rect width="1460" height="736" fill="#ffffff"/>
  <defs>
    <marker id="f-llena" markerWidth="10" markerHeight="8" refX="9" refY="4" orient="auto">
      <path d="M0,0 L10,4 L0,8 z" fill="#2f3a45"/>
    </marker>
    <marker id="f-abierta" markerWidth="10" markerHeight="8" refX="9" refY="4" orient="auto">
      <path d="M0,0 L10,4 L0,8" fill="none" stroke="#5b6875" stroke-width="1.4"/>
    </marker>
  </defs>

  <text x="30" y="42" font-size="21" font-weight="700" fill="#12181f">RF10 · Registro del pedido</text>
  <text x="30" y="68" font-size="13.5" fill="#5b6875">Quién registra el pedido y qué hace la base para que dos clientes no se lleven la misma unidad.</text>
  <line x1="30" y1="84" x2="1430" y2="84" stroke="#c8d2dc" stroke-width="1.4"/>

  
  <rect x="30" y="108" width="470" height="448" rx="6" fill="#f7f9fb" stroke="#c8d2dc" stroke-width="1.4"/>
  <text x="46" y="134" font-size="12.5" font-weight="700" fill="#12181f" letter-spacing="1.2">CASO DE USO — QUIÉN LA USA</text>
  
    <g stroke="#3a6ea5" stroke-width="2.2" fill="none">
      <circle cx="108" cy="170" r="17" fill="#eef4fb"/>
      <line x1="108" y1="187" x2="108" y2="232"/>
      <line x1="80" y1="202" x2="136" y2="202"/>
      <line x1="108" y1="232" x2="86" y2="268"/>
      <line x1="108" y1="232" x2="130" y2="268"/>
    </g>
  <text x="108" y="290" text-anchor="middle" font-size="13" font-weight="700" fill="#1d3a5c">Cliente</text>
  <text x="108" y="308" text-anchor="middle" font-size="11.5" fill="#5b6875">sin cuenta ni registro</text>
  
      <ellipse cx="368" cy="204" rx="118" ry="26" fill="#ffffff" stroke="#3a6ea5" stroke-width="1.8"/>
      <text x="368" y="209" text-anchor="middle" font-size="12.5" fill="#1d3a5c">Registrar el pedido</text>
      <line x1="138" y1="208" x2="248" y2="204" stroke="#5b6875" stroke-width="1.3"/>
  
  <rect x="524" y="108" width="906" height="448" rx="6" fill="#ffffff" stroke="#c8d2dc" stroke-width="1.4"/>
  <text x="540" y="134" font-size="12.5" font-weight="700" fill="#12181f" letter-spacing="1.2">COMPORTAMIENTO — CÓMO RESPONDE EL SISTEMA</text>
  
      <rect x="500" y="152" width="168" height="40" rx="4" fill="#ffffff" stroke="#5b6875" stroke-width="1.6"/>
      <text x="584" y="177" text-anchor="middle" font-size="12.5" font-weight="700" fill="#2f3a45">Cliente</text>
      <line x1="584" y1="192" x2="584" y2="532" stroke="#9dbad6" stroke-width="1.3" stroke-dasharray="6 5"/>
      <rect x="762" y="152" width="168" height="40" rx="4" fill="#ffffff" stroke="#5b6875" stroke-width="1.6"/>
      <text x="846" y="177" text-anchor="middle" font-size="12.5" font-weight="700" fill="#2f3a45">Checkout</text>
      <line x1="846" y1="192" x2="846" y2="532" stroke="#9dbad6" stroke-width="1.3" stroke-dasharray="6 5"/>
      <rect x="1024" y="152" width="168" height="40" rx="4" fill="#ffffff" stroke="#5b6875" stroke-width="1.6"/>
      <text x="1108" y="177" text-anchor="middle" font-size="12.5" font-weight="700" fill="#2f3a45">Base de datos</text>
      <line x1="1108" y1="192" x2="1108" y2="532" stroke="#9dbad6" stroke-width="1.3" stroke-dasharray="6 5"/>
      <rect x="1286" y="152" width="168" height="40" rx="4" fill="#ffffff" stroke="#5b6875" stroke-width="1.6"/>
      <text x="1370" y="177" text-anchor="middle" font-size="12.5" font-weight="700" fill="#2f3a45">orders</text>
      <line x1="1370" y1="192" x2="1370" y2="532" stroke="#9dbad6" stroke-width="1.3" stroke-dasharray="6 5"/>
  <line x1="584" y1="226" x2="837" y2="226" stroke="#2f3a45" stroke-width="1.5" marker-end="url(#f-llena)"/><text x="715" y="218" text-anchor="middle" font-size="12" fill="#2f3a45">1. confirma sus datos de entrega</text><line x1="846" y1="270" x2="1099" y2="270" stroke="#2f3a45" stroke-width="1.5" marker-end="url(#f-llena)"/><text x="977" y="262" text-anchor="middle" font-size="12" fill="#2f3a45">2. place_order(líneas, cliente, destino, cupón)</text><path d="M1108 304 h38 v22 h-38" fill="none" stroke="#2f3a45" stroke-width="1.5" marker-end="url(#f-llena)"/><text x="1154" y="306" text-anchor="start" font-size="12" fill="#2f3a45">3. relee el precio vigente de cada pieza</text><path d="M1108 358 h38 v22 h-38" fill="none" stroke="#2f3a45" stroke-width="1.5" marker-end="url(#f-llena)"/><text x="1154" y="360" text-anchor="start" font-size="12" fill="#2f3a45">4. bloquea las filas y comprueba existencias</text><line x1="1108" y1="422" x2="1361" y2="422" stroke="#2f3a45" stroke-width="1.5" marker-end="url(#f-llena)"/><text x="1239" y="414" text-anchor="middle" font-size="12" fill="#2f3a45">5. graba el pedido y sus líneas</text><line x1="1370" y1="466" x2="1117" y2="466" stroke="#5b6875" stroke-width="1.5" stroke-dasharray="6 4" marker-end="url(#f-abierta)"/><text x="1239" y="458" text-anchor="middle" font-size="12" fill="#5b6875">6. número correlativo asignado</text><line x1="1108" y1="510" x2="855" y2="510" stroke="#5b6875" stroke-width="1.5" stroke-dasharray="6 4" marker-end="url(#f-abierta)"/><text x="977" y="502" text-anchor="middle" font-size="12" fill="#5b6875">7. número de pedido, o la pieza que faltó</text>
  
  <rect x="30" y="576" width="1400" height="108" rx="6" fill="#f7f9fb" stroke="#c8d2dc" stroke-width="1.4"/>
  <text x="46" y="602" font-size="12.5" font-weight="700" fill="#12181f" letter-spacing="1.2">COMPONENTES QUE INTERVIENEN</text>
  
      <rect x="46" y="616" width="445.3333333333333" height="52" rx="4" fill="#ffffff" stroke="#5b6875" stroke-width="1.5"/>
      <rect x="41" y="626" width="10" height="8" fill="#ffffff" stroke="#5b6875" stroke-width="1.2"/>
      <rect x="41" y="642" width="10" height="8" fill="#ffffff" stroke="#5b6875" stroke-width="1.2"/>
      <text x="268.66666666666663" y="646" text-anchor="middle" font-size="12.5" fill="#2f3a45">Checkout</text>
      <rect x="507.3333333333333" y="616" width="445.3333333333333" height="52" rx="4" fill="#ffffff" stroke="#5b6875" stroke-width="1.5"/>
      <rect x="502.3333333333333" y="626" width="10" height="8" fill="#ffffff" stroke="#5b6875" stroke-width="1.2"/>
      <rect x="502.3333333333333" y="642" width="10" height="8" fill="#ffffff" stroke="#5b6875" stroke-width="1.2"/>
      <text x="730" y="646" text-anchor="middle" font-size="12.5" fill="#2f3a45">Funciones transaccionales</text>
      <rect x="968.6666666666666" y="616" width="445.3333333333333" height="52" rx="4" fill="#ffffff" stroke="#5b6875" stroke-width="1.5"/>
      <rect x="963.6666666666666" y="626" width="10" height="8" fill="#ffffff" stroke="#5b6875" stroke-width="1.2"/>
      <rect x="963.6666666666666" y="642" width="10" height="8" fill="#ffffff" stroke="#5b6875" stroke-width="1.2"/>
      <text x="1191.3333333333333" y="646" text-anchor="middle" font-size="12.5" fill="#2f3a45">Control de existencias</text>

  <text x="30" y="716" font-size="12" fill="#7a8794">El cliente transmite identificadores y cantidades, nunca importes: los precios se releen del catálogo dentro de la transacción. Si una pieza no alcanza, no se graba nada.</text>
</svg>
